<?xml version="1.0" encoding="UTF-8"?>
<svg xmlns="http://www.w3.org/2000/svg" width="760" height="156" viewBox="0 0 760 156" role="img" aria-label="Vite production bundle (generated Svelte graph) — VITE-7-SVELTE-INTEGRATION-BUILD">
  <title>Vite production bundle (generated Svelte graph) — VITE-7-SVELTE-INTEGRATION-BUILD (lower is better)</title>
  <style><![CDATA[
    text { font-family: -apple-system, BlinkMacSystemFont, "Segoe UI", Helvetica, Arial, sans-serif; }
  ]]></style>

  <text fill="#1f2328" x="16" y="20" font-size="15" font-weight="600">Vite production bundle (generated Svelte graph) — VITE-7-SVELTE-INTEGRATION-B…</text>
  <text fill="#59636e" x="16" y="36" font-size="11">lower is better</text>

  <line x1="248" y1="48" x2="248" y2="128" stroke="#d0d7de" stroke-opacity="0.55" />
  <text fill="#59636e" x="248" y="148" text-anchor="middle" font-size="11">0.0 ms</text>
  <line x1="348.5" y1="48" x2="348.5" y2="128" stroke="#d0d7de" stroke-opacity="0.55" />
  <text fill="#59636e" x="348.5" y="148" text-anchor="middle" font-size="11">78.4 ms</text>
  <line x1="449" y1="48" x2="449" y2="128" stroke="#d0d7de" stroke-opacity="0.55" />
  <text fill="#59636e" x="449" y="148" text-anchor="middle" font-size="11">157 ms</text>
  <line x1="549.5" y1="48" x2="549.5" y2="128" stroke="#d0d7de" stroke-opacity="0.55" />
  <text fill="#59636e" x="549.5" y="148" text-anchor="middle" font-size="11">235 ms</text>
  <line x1="650" y1="48" x2="650" y2="128" stroke="#d0d7de" stroke-opacity="0.55" />
  <text fill="#59636e" x="650" y="148" text-anchor="middle" font-size="11">314 ms</text>
  <text fill="#59636e" x="16" y="77" font-size="11">1</text>
      <text fill="#1f2328" x="36" y="77" font-size="13">Vite 7 × @rsvelte/vite-p…</text>

      <rect x="248" y="61" width="402" height="22" rx="5" fill="#afb8c133"/>
      <rect x="248" y="61" width="271.5" height="22" rx="5" fill="#2563eb"/>
      <text fill="#ffffff" x="256" y="77" font-size="12" font-weight="600">212 ms</text>
  <text fill="#59636e" x="16" y="113" font-size="11">2</text>
      <text fill="#1f2328" x="36" y="113" font-size="13">Vite 7 × @sveltejs/vite-…</text>

      <rect x="248" y="97" width="402" height="22" rx="5" fill="#afb8c133"/>
      <rect x="248" y="97" width="402.0" height="22" rx="5" fill="#e34b20"/>
      <text fill="#ffffff" x="256" y="113" font-size="12" font-weight="600">314 ms</text>
</svg>
