<svg xmlns="http://www.w3.org/2000/svg" width="760" height="202" viewBox="0 0 760 202" role="img" aria-label="LSP (editor language server)">
<title>LSP (editor language server)</title><desc>. Lower is better. Hatched bars are unranked; unavailable tools have no bar.</desc>
<style><![CDATA[text{font-family:-apple-system,BlinkMacSystemFont,"Segoe UI",Helvetica,Arial,sans-serif;}]]></style>
<text x="16" y="22" fill="#1f2328" font-size="15" font-weight="600">LSP (editor language server)</text>
<text x="16" y="49" fill="#59636e" font-size="11">Lower is better · Median of measured runs</text>
<line x1="258" y1="62" x2="258" y2="172" stroke="#eaeef2"/>
<text x="258" y="192" fill="#59636e" font-size="10" text-anchor="middle">0.0 ms</text>
<line x1="377.5" y1="62" x2="377.5" y2="172" stroke="#eaeef2"/>
<text x="377.5" y="192" fill="#59636e" font-size="10" text-anchor="middle">195 ms</text>
<line x1="497" y1="62" x2="497" y2="172" stroke="#eaeef2"/>
<text x="497" y="192" fill="#59636e" font-size="10" text-anchor="middle">390 ms</text>
<line x1="616.5" y1="62" x2="616.5" y2="172" stroke="#eaeef2"/>
<text x="616.5" y="192" fill="#59636e" font-size="10" text-anchor="middle">586 ms</text>
<line x1="736" y1="62" x2="736" y2="172" stroke="#eaeef2"/>
<text x="736" y="192" fill="#59636e" font-size="10" text-anchor="middle">781 ms</text>
<g data-tool="Verter"><title>Verter: verter-lsp — native server (experimental Svelte carrier when enabled) | init=38ms · open→hover=282ms · hoverWarm=1ms</title>
<circle cx="21" cy="85" r="4" fill="#e11d48"/>
<text x="32" y="89" fill="#1f2328" font-size="12" font-weight="500">Verter</text>
<rect x="258" y="88" width="478" height="12" rx="3" fill="#afb8c126"/>
<rect data-series="primary" x="258" y="88" width="172.80" height="12" rx="3" fill="#e11d48"/>
<text x="258" y="78" fill="#1f2328" font-size="12" font-weight="600">282 ms</text>
</g>
<g data-tool="svelte-language-server (JS)"><title>svelte-language-server (JS): Official Svelte language server (stdio) | init=506ms · open→hover=784ms · hoverWarm=1ms</title>
<circle cx="21" cy="139" r="4" fill="#e34b20"/>
<text x="32" y="143" fill="#1f2328" font-size="12" font-weight="500">svelte-language-server (JS)</text>
<rect x="258" y="142" width="478" height="12" rx="3" fill="#afb8c126"/>
<rect data-series="primary" x="258" y="142" width="478.00" height="12" rx="3" fill="#e34b20"/>
<text x="258" y="132" fill="#1f2328" font-size="12" font-weight="600">781 ms</text>
</g>
</svg>
