<svg xmlns="http://www.w3.org/2000/svg" width="760" height="160" viewBox="0 0 760 160" role="img" aria-label="Svelte TypeScript projection — median (primary), lower is better"><style><![CDATA[text{font-family:-apple-system,BlinkMacSystemFont,"Segoe UI",Helvetica,Arial,sans-serif;}]]></style><text x="0" y="18" font-size="13" font-weight="600" fill="#f0f6fc">Svelte TypeScript projection — median (primary), lower is better</text><line x1="248" y1="32" x2="248" y2="150" stroke="#3d444d" stroke-width="1"/><text x="248" y="158" font-size="10" fill="#9198a1" text-anchor="middle">0.0 ms</text><line x1="352" y1="32" x2="352" y2="150" stroke="#2a313a" stroke-width="1"/><text x="352" y="158" font-size="10" fill="#9198a1" text-anchor="middle">39.0 ms</text><line x1="456" y1="32" x2="456" y2="150" stroke="#2a313a" stroke-width="1"/><text x="456" y="158" font-size="10" fill="#9198a1" text-anchor="middle">78.1 ms</text><line x1="560" y1="32" x2="560" y2="150" stroke="#2a313a" stroke-width="1"/><text x="560" y="158" font-size="10" fill="#9198a1" text-anchor="middle">117.1 ms</text><line x1="664" y1="32" x2="664" y2="150" stroke="#2a313a" stroke-width="1"/><text x="664" y="158" font-size="10" fill="#9198a1" text-anchor="middle">156.2 ms</text><text x="238" y="55" font-size="12" fill="#9198a1" text-anchor="end">@rsvelte/svelte2tsx (Wasm)</text><rect x="248" y="40" width="103.45063740147648" height="22" fill="#0891b2" fill-opacity="1" rx="2"/><text x="345.45063740147646" y="55" font-size="11" fill="#f0f6fc" text-anchor="end">38.8 ms</text><text x="238" y="91" font-size="12" fill="#9198a1" text-anchor="end">Verter IDE projection</text><rect x="248" y="76" width="398.3245081027781" height="22" fill="#ca8a04" fill-opacity="1" rx="2"/><text x="640.324508102778" y="91" font-size="11" fill="#f0f6fc" text-anchor="end">149.5 ms</text><text x="238" y="127" font-size="12" fill="#9198a1" text-anchor="end">svelte2tsx</text><rect x="248" y="112" width="416" height="22" fill="#db2777" fill-opacity="1" rx="2"/><text x="658" y="127" font-size="11" fill="#f0f6fc" text-anchor="end">156.2 ms</text></svg>
