<svg xmlns="http://www.w3.org/2000/svg" width="760" height="168" viewBox="0 0 760 168" role="img" aria-label="Lint">
<title>Lint</title><desc>VERTER-NATIVE-DIAGNOSTICS — separate workload. Lower is better. Hatched bars are unranked; unavailable tools have no bar.</desc>
<style><![CDATA[text{font-family:-apple-system,BlinkMacSystemFont,"Segoe UI",Helvetica,Arial,sans-serif;}]]></style>
<text x="16" y="22" fill="#f0f6fc" font-size="15" font-weight="600">Lint</text>
<text x="16" y="42" fill="#a6adb7" font-size="12">VERTER-NATIVE-DIAGNOSTICS — separate workload</text>
<text x="16" y="69" fill="#a6adb7" font-size="11">Lower is better · Median of measured runs</text>
<line x1="258" y1="82" x2="258" y2="138" stroke="#2a313a"/>
<text x="258" y="158" fill="#a6adb7" font-size="10" text-anchor="middle">0.0 ms</text>
<line x1="377.5" y1="82" x2="377.5" y2="138" stroke="#2a313a"/>
<text x="377.5" y="158" fill="#a6adb7" font-size="10" text-anchor="middle">183 ms</text>
<line x1="497" y1="82" x2="497" y2="138" stroke="#2a313a"/>
<text x="497" y="158" fill="#a6adb7" font-size="10" text-anchor="middle">366 ms</text>
<line x1="616.5" y1="82" x2="616.5" y2="138" stroke="#2a313a"/>
<text x="616.5" y="158" fill="#a6adb7" font-size="10" text-anchor="middle">550 ms</text>
<line x1="736" y1="82" x2="736" y2="138" stroke="#2a313a"/>
<text x="736" y="158" fill="#a6adb7" font-size="10" text-anchor="middle">733 ms</text>
<g data-tool="Verter host lint"><title>Verter host lint · Unranked: VerterHost.upsert(fileKind=svelte) + lint/getDiagnostics for each explicit file | ⚠ FAILED VALIDATION — planted issue or markup work not observed | ⓘ file coverage by construction: the invocation receives all 650 corpus files as an explicit list.</title>
<circle cx="21" cy="105" r="4" fill="#e11d48"/>
<text x="32" y="109" fill="#f0f6fc" font-size="12" font-weight="500">Verter host lint</text>
<text x="32" y="125" fill="#a6adb7" font-size="10">Unranked</text>
<defs><pattern id="hatch-0" width="7" height="7" patternUnits="userSpaceOnUse" patternTransform="rotate(35)"><rect width="7" height="7" fill="#e11d48"/><line x1="0" y1="0" x2="0" y2="7" stroke="#fff" stroke-width="2" stroke-opacity="0.5"/></pattern></defs>
<rect x="258" y="108" width="478" height="12" rx="3" fill="#6e768133"/>
<rect data-series="primary" x="258" y="108" width="478.00" height="12" rx="3" fill="url(#hatch-0)"/>
<text x="258" y="98" fill="#f0f6fc" font-size="12" font-weight="600">(733 ms)</text>
</g>
</svg>
