<svg xmlns="http://www.w3.org/2000/svg" width="760" height="168" viewBox="0 0 760 168" role="img" aria-label="Svelte TypeScript projection">
<title>Svelte TypeScript projection</title><desc>VERTER-IDE-PROJECTION — separate workload. Lower is better. Hatched bars are unranked; unavailable tools have no bar.</desc>
<style><![CDATA[text{font-family:-apple-system,BlinkMacSystemFont,"Segoe UI",Helvetica,Arial,sans-serif;}]]></style>
<text x="16" y="22" fill="#f0f6fc" font-size="15" font-weight="600">Svelte TypeScript projection</text>
<text x="16" y="42" fill="#a6adb7" font-size="12">VERTER-IDE-PROJECTION — separate workload</text>
<text x="16" y="69" fill="#a6adb7" font-size="11">Lower is better · Median of measured runs</text>
<line x1="258" y1="82" x2="258" y2="138" stroke="#2a313a"/>
<text x="258" y="158" fill="#a6adb7" font-size="10" text-anchor="middle">0.0 ms</text>
<line x1="377.5" y1="82" x2="377.5" y2="138" stroke="#2a313a"/>
<text x="377.5" y="158" fill="#a6adb7" font-size="10" text-anchor="middle">1.05 s</text>
<line x1="497" y1="82" x2="497" y2="138" stroke="#2a313a"/>
<text x="497" y="158" fill="#a6adb7" font-size="10" text-anchor="middle">2.09 s</text>
<line x1="616.5" y1="82" x2="616.5" y2="138" stroke="#2a313a"/>
<text x="616.5" y="158" fill="#a6adb7" font-size="10" text-anchor="middle">3.14 s</text>
<line x1="736" y1="82" x2="736" y2="138" stroke="#2a313a"/>
<text x="736" y="158" fill="#a6adb7" font-size="10" text-anchor="middle">4.18 s</text>
<g data-tool="Verter IDE projection"><title>Verter IDE projection · Unranked: Native ensureIdeCompiled/getIde Svelte path; separate class because this is Verter's IDE carrier, not a svelte2tsx-compatible schema | gate: ✗ invalid TSX: Unexpected token. Did you mean `{'&gt;'}` or `&amp;gt;`?</title>
<circle cx="21" cy="105" r="4" fill="#e11d48"/>
<text x="32" y="109" fill="#f0f6fc" font-size="12" font-weight="500">Verter IDE projection</text>
<text x="32" y="125" fill="#a6adb7" font-size="10">Unranked</text>
<defs><pattern id="hatch-0" width="7" height="7" patternUnits="userSpaceOnUse" patternTransform="rotate(35)"><rect width="7" height="7" fill="#e11d48"/><line x1="0" y1="0" x2="0" y2="7" stroke="#fff" stroke-width="2" stroke-opacity="0.5"/></pattern></defs>
<rect x="258" y="108" width="478" height="12" rx="3" fill="#6e768133"/>
<rect data-series="primary" x="258" y="108" width="478.00" height="12" rx="3" fill="url(#hatch-0)"/>
<text x="258" y="98" fill="#f0f6fc" font-size="12" font-weight="600">(4.18 s)</text>
</g>
</svg>
