<?xml version="1.0" encoding="UTF-8"?>
<svg xmlns="http://www.w3.org/2000/svg" width="760" height="200" viewBox="0 0 760 200" role="img" aria-label="Compiler — SERVER · production · SVELTE-5.56.8">
  <title>Compiler — SERVER · production · SVELTE-5.56.8 (lower is better)</title>
  <style><![CDATA[
    text { font-family: -apple-system, BlinkMacSystemFont, "Segoe UI", Helvetica, Arial, sans-serif; }
  ]]></style>

  <text fill="#1f2328" x="16" y="20" font-size="15" font-weight="600">Compiler — SERVER · production · SVELTE-5.56.8</text>
  <text fill="#59636e" x="16" y="36" font-size="11">lower is better</text>
  <rect x="146" y="33" width="10" height="10" rx="2" fill="#1f2328"/>
  <text fill="#59636e" x="160" y="42" font-size="11">warm</text>
  <rect x="204" y="33" width="10" height="10" rx="2" fill="#1f2328" fill-opacity="0.38"/>
  <text fill="#59636e" x="218" y="42" font-size="11">fresh child</text>
  <line x1="248" y1="56" x2="248" y2="172" stroke="#d0d7de" stroke-opacity="0.55" />
  <text fill="#59636e" x="248" y="192" text-anchor="middle" font-size="11">0.0 ms</text>
  <line x1="348.5" y1="56" x2="348.5" y2="172" stroke="#d0d7de" stroke-opacity="0.55" />
  <text fill="#59636e" x="348.5" y="192" text-anchor="middle" font-size="11">180 ms</text>
  <line x1="449" y1="56" x2="449" y2="172" stroke="#d0d7de" stroke-opacity="0.55" />
  <text fill="#59636e" x="449" y="192" text-anchor="middle" font-size="11">359 ms</text>
  <line x1="549.5" y1="56" x2="549.5" y2="172" stroke="#d0d7de" stroke-opacity="0.55" />
  <text fill="#59636e" x="549.5" y="192" text-anchor="middle" font-size="11">539 ms</text>
  <line x1="650" y1="56" x2="650" y2="172" stroke="#d0d7de" stroke-opacity="0.55" />
  <text fill="#59636e" x="650" y="192" text-anchor="middle" font-size="11">718 ms</text>
  <text fill="#59636e" x="16" y="85" font-size="11">1</text>
      <text fill="#1f2328" x="36" y="85" font-size="13">@rsvelte/native (NAPI)</text>

      <rect x="248" y="69" width="402" height="22" rx="5" fill="#afb8c133"/>
      <rect x="248" y="69" width="91.9" height="22" rx="5" fill="#2563eb" fill-opacity="1"/>
      <rect x="248" y="69" width="89.3" height="22" rx="5" fill="#2563eb" fill-opacity="0.38"/>
      <line x1="337.3175346738707" y1="68" x2="337.3175346738707" y2="92" stroke="#ffffff" stroke-width="2" stroke-opacity="0.9"/>
      <text fill="#1f2328" x="347.94353311424277" y="85" font-size="12" font-weight="600">164 ms warm / 160 ms fresh child</text>
  <text fill="#59636e" x="16" y="121" font-size="11">2</text>
      <text fill="#1f2328" x="36" y="121" font-size="13">@rsvelte/compiler (wasm)</text>

      <rect x="248" y="105" width="402" height="22" rx="5" fill="#afb8c133"/>
      <rect x="248" y="105" width="218.4" height="22" rx="5" fill="#2563eb" fill-opacity="0.38"/>
      <rect x="248" y="105" width="199.6" height="22" rx="5" fill="#2563eb" fill-opacity="1"/>
      <line x1="447.6486548209213" y1="104" x2="447.6486548209213" y2="128" stroke="#ffffff" stroke-width="2" stroke-opacity="0.9"/>
      <text fill="#ffffff" x="256" y="121" font-size="12" font-weight="600">357 ms warm / 390 ms fresh child</text>
  <text fill="#59636e" x="16" y="157" font-size="11">3</text>
      <text fill="#1f2328" x="36" y="157" font-size="13">svelte/compiler 5.56.8</text>

      <rect x="248" y="141" width="402" height="22" rx="5" fill="#afb8c133"/>
      <rect x="248" y="141" width="402.0" height="22" rx="5" fill="#e34b20" fill-opacity="0.38"/>
      <rect x="248" y="141" width="324.8" height="22" rx="5" fill="#e34b20" fill-opacity="1"/>
      <line x1="572.8456915278783" y1="140" x2="572.8456915278783" y2="164" stroke="#ffffff" stroke-width="2" stroke-opacity="0.9"/>
      <text fill="#ffffff" x="256" y="157" font-size="12" font-weight="600">580 ms warm / 718 ms fresh child</text>
</svg>
