<?xml version="1.0" encoding="UTF-8"?>
<svg xmlns="http://www.w3.org/2000/svg" width="760" height="200" viewBox="0 0 760 200" role="img" aria-label="Compiler — CLIENT · production · Svelte runtime">
  <title>Compiler — CLIENT · production · Svelte runtime (lower is better)</title>
  <style><![CDATA[
    text { font-family: -apple-system, BlinkMacSystemFont, "Segoe UI", Helvetica, Arial, sans-serif; }
  ]]></style>
  <defs><pattern id="hatch-1" width="8" height="8" patternUnits="userSpaceOnUse" patternTransform="rotate(35)"><rect width="8" height="8" fill="#2563eb"/><line x1="0" y1="0" x2="0" y2="8" stroke="#fff" stroke-width="3" opacity="0.35"/></pattern><pattern id="hatch-2" width="8" height="8" patternUnits="userSpaceOnUse" patternTransform="rotate(35)"><rect width="8" height="8" fill="#2563eb"/><line x1="0" y1="0" x2="0" y2="8" stroke="#fff" stroke-width="3" opacity="0.35"/></pattern></defs>
  <text fill="#1f2328" x="16" y="20" font-size="15" font-weight="600">Compiler — CLIENT · production · Svelte runtime</text>
  <text fill="#59636e" x="16" y="36" font-size="11">lower is better</text>
  <rect x="146" y="33" width="10" height="10" rx="2" fill="#1f2328"/>
  <text fill="#59636e" x="160" y="42" font-size="11">warm</text>
  <rect x="204" y="33" width="10" height="10" rx="2" fill="#1f2328" fill-opacity="0.38"/>
  <text fill="#59636e" x="218" y="42" font-size="11">fresh child</text>
  <line x1="248" y1="56" x2="248" y2="172" stroke="#d0d7de" stroke-opacity="0.55" />
  <text fill="#59636e" x="248" y="192" text-anchor="middle" font-size="11">0.0 ms</text>
  <line x1="348.5" y1="56" x2="348.5" y2="172" stroke="#d0d7de" stroke-opacity="0.55" />
  <text fill="#59636e" x="348.5" y="192" text-anchor="middle" font-size="11">204 ms</text>
  <line x1="449" y1="56" x2="449" y2="172" stroke="#d0d7de" stroke-opacity="0.55" />
  <text fill="#59636e" x="449" y="192" text-anchor="middle" font-size="11">407 ms</text>
  <line x1="549.5" y1="56" x2="549.5" y2="172" stroke="#d0d7de" stroke-opacity="0.55" />
  <text fill="#59636e" x="549.5" y="192" text-anchor="middle" font-size="11">611 ms</text>
  <line x1="650" y1="56" x2="650" y2="172" stroke="#d0d7de" stroke-opacity="0.55" />
  <text fill="#59636e" x="650" y="192" text-anchor="middle" font-size="11">815 ms</text>
  <text fill="#59636e" x="16" y="85" font-size="11">1</text>
      <text fill="#1f2328" x="36" y="85" font-size="13">svelte/compiler 5.57.0</text>

      <rect x="248" y="69" width="402" height="22" rx="5" fill="#afb8c133"/>
      <rect x="248" y="69" width="402.0" height="22" rx="5" fill="#e34b20" fill-opacity="0.38"/>
      <rect x="248" y="69" width="335.6" height="22" rx="5" fill="#e34b20" fill-opacity="1"/>
      <line x1="583.5970951728608" y1="68" x2="583.5970951728608" y2="92" stroke="#ffffff" stroke-width="2" stroke-opacity="0.9"/>
      <text fill="#ffffff" x="256" y="85" font-size="12" font-weight="600">680 ms warm / 815 ms fresh child</text>
  <text fill="#59636e" x="16" y="121" font-size="11">2</text>
      <text fill="#1f2328" x="36" y="121" font-size="13" fill-opacity="0.62">@rsvelte/native (NAPI)</text>
      <line x1="36" y1="116" x2="240" y2="116" stroke="#1f2328" stroke-opacity="0.45" />
      <rect x="248" y="105" width="402" height="22" rx="5" fill="#afb8c133"/>
      <rect x="248" y="105" width="101.3" height="22" rx="5" fill="url(#hatch-1)" fill-opacity="1"/>
      <rect x="248" y="105" width="100.5" height="22" rx="5" fill="url(#hatch-1)" fill-opacity="0.38"/>
      <line x1="348.53750349846064" y1="104" x2="348.53750349846064" y2="128" stroke="#ffffff" stroke-width="2" stroke-opacity="0.9"/>
      <text fill="#ffffff" x="256" y="121" font-size="12" font-weight="600">205 ms warm / 204 ms fresh child · unranked</text>
  <text fill="#59636e" x="16" y="157" font-size="11">3</text>
      <text fill="#1f2328" x="36" y="157" font-size="13" fill-opacity="0.62">@rsvelte/compiler (wasm)</text>
      <line x1="36" y1="152" x2="240" y2="152" stroke="#1f2328" stroke-opacity="0.45" />
      <rect x="248" y="141" width="402" height="22" rx="5" fill="#afb8c133"/>
      <rect x="248" y="141" width="278.9" height="22" rx="5" fill="url(#hatch-2)" fill-opacity="0.38"/>
      <rect x="248" y="141" width="260.3" height="22" rx="5" fill="url(#hatch-2)" fill-opacity="1"/>
      <line x1="508.29993960552093" y1="140" x2="508.29993960552093" y2="164" stroke="#ffffff" stroke-width="2" stroke-opacity="0.9"/>
      <text fill="#ffffff" x="256" y="157" font-size="12" font-weight="600">527 ms warm / 565 ms fresh child · unranked</text>
</svg>
