<svg xmlns="http://www.w3.org/2000/svg" width="760" height="276" viewBox="0 0 760 276" role="img" aria-label="Typecheck">
<title>Typecheck</title><desc>TS+SVELTE — separate workload. Lower is better. Hatched bars are unranked; unavailable tools have no bar.</desc>
<style><![CDATA[text{font-family:-apple-system,BlinkMacSystemFont,"Segoe UI",Helvetica,Arial,sans-serif;}]]></style>
<text x="16" y="22" fill="#f0f6fc" font-size="15" font-weight="600">Typecheck</text>
<text x="16" y="42" fill="#a6adb7" font-size="12">TS+SVELTE — separate workload</text>
<text x="16" y="69" fill="#a6adb7" font-size="11">Lower is better · Median of measured runs</text>
<line x1="258" y1="82" x2="258" y2="246" stroke="#2a313a"/>
<text x="258" y="266" fill="#a6adb7" font-size="10" text-anchor="middle">0.0 ms</text>
<line x1="377.5" y1="82" x2="377.5" y2="246" stroke="#2a313a"/>
<text x="377.5" y="266" fill="#a6adb7" font-size="10" text-anchor="middle">855 ms</text>
<line x1="497" y1="82" x2="497" y2="246" stroke="#2a313a"/>
<text x="497" y="266" fill="#a6adb7" font-size="10" text-anchor="middle">1.71 s</text>
<line x1="616.5" y1="82" x2="616.5" y2="246" stroke="#2a313a"/>
<text x="616.5" y="266" fill="#a6adb7" font-size="10" text-anchor="middle">2.56 s</text>
<line x1="736" y1="82" x2="736" y2="246" stroke="#2a313a"/>
<text x="736" y="266" fill="#a6adb7" font-size="10" text-anchor="middle">3.42 s</text>
<g data-tool="svelte-check-native"><title>svelte-check-native: svelte-check-native (harshmandan) · Rust Svelte analysis + TypeScript 7 native; CSS diagnostics excluded for every checker | gate: script=✓ tmpl=✓ corpus=✓</title>
<circle cx="21" cy="105" r="4" fill="#b77820"/>
<text x="32" y="109" fill="#f0f6fc" font-size="12" font-weight="500">svelte-check-native</text>
<rect x="258" y="108" width="478" height="12" rx="3" fill="#6e768133"/>
<rect data-series="primary" x="258" y="108" width="34.73" height="12" rx="3" fill="#b77820"/>
<text x="258" y="98" fill="#f0f6fc" font-size="12" font-weight="600">248 ms</text>
</g>
<g data-tool="rsvelte-check"><title>rsvelte-check: rsvelte-check (@rsvelte/svelte-check) with --tsgo when tsgo is available | gate: script=✓ tmpl=✓ corpus=✓</title>
<circle cx="21" cy="159" r="4" fill="#2563eb"/>
<text x="32" y="163" fill="#f0f6fc" font-size="12" font-weight="500">rsvelte-check</text>
<rect x="258" y="162" width="478" height="12" rx="3" fill="#6e768133"/>
<rect data-series="primary" x="258" y="162" width="53.64" height="12" rx="3" fill="#2563eb"/>
<text x="258" y="152" fill="#f0f6fc" font-size="12" font-weight="600">384 ms</text>
</g>
<g data-tool="svelte-check (JS)"><title>svelte-check (JS): Official svelte-check (Svelte language tools) · TypeScript JS engine | gate: script=✓ tmpl=✓ corpus=✓</title>
<circle cx="21" cy="213" r="4" fill="#e34b20"/>
<text x="32" y="217" fill="#f0f6fc" font-size="12" font-weight="500">svelte-check (JS)</text>
<rect x="258" y="216" width="478" height="12" rx="3" fill="#6e768133"/>
<rect data-series="primary" x="258" y="216" width="478.00" height="12" rx="3" fill="#e34b20"/>
<text x="258" y="206" fill="#f0f6fc" font-size="12" font-weight="600">3.42 s</text>
</g>
</svg>
